# xmcd
#
# Track frame offsets: 
#        150
#        10451
#        21335
#        35453
#        50786
#        64704
#        79391
#        91774
#        102340
#        117455
#        136115
#        149939
#        170867
#        189474
#        204181
#        217180
#        232693
#        247936
#        264270
#        282619
#
# Disc length: 4028 seconds
#
# Revision: 4
# Processed by: cddbd v1.5.2PL0 Copyright (c) Steve Scherf et al.
# Submitted via: ExactAudioCopyFreeDBPlugin 1.0
#
DISCID=2c0fba14
DTITLE=Various Artist - Zlatna Zbirka CD2
DYEAR=2005
DGENRE=Blues
TTITLE0=Glen Campbell - What a Wonderful World
TTITLE1=Petula Clark - La Vie En Rose
TTITLE2=John Denver - Annie's Song
TTITLE3=Kenny Rogers - Unforgettable Gordon
TTITLE4=Ben Cramer - That's Amore
TTITLE5=Sacha Distel - Can't Take My Eyes Off You
TTITLE6=Jean-Claude Pascal - C'est Si Bon
TTITLE7=John Baker - Magic is the Moonlight
TTITLE8=Tommy Blaize - Island in the Sun
TTITLE9=Jose Feliciano - Che Sara
TTITLE10=Jane McDonald - You're My World
TTITLE11=Glen Campbell - Bridge over Troubled Water
TTITLE12=Shirley Bassey - That's What Friends Are For
TTITLE13=Ben Cramer - Release Me
TTITLE14=Mary c - My Man
TTITLE15=Demis Roussos - Rain and Tears
TTITLE16=Brotherhood of Man - All By Myself
TTITLE17=Mary Carewe - If You Go Away
TTITLE18=Malcolm Roberts - My Way
TTITLE19=Shirley Bassey - Wind Beneath My Wings
EXTD=
EXTT0=
EXTT1=
EXTT2=
EXTT3=
EXTT4=
EXTT5=
EXTT6=
EXTT7=
EXTT8=
EXTT9=
EXTT10=
EXTT11=
EXTT12=
EXTT13=
EXTT14=
EXTT15=
EXTT16=
EXTT17=
EXTT18=
EXTT19=
PLAYORDER=
